<svg width="20" height="24" viewBox="0 0 20 24" fill="none" xmlns="http://www.w3.org/2000/svg">
<g clip-path="url(#clip0_178_590)">
<path d="M6 13.5C6 12.6716 6.67157 12 7.5 12H12.5C13.3284 12 14 12.6716 14 13.5V22.5C14 23.3284 13.3284 24 12.5 24H7.5C6.67157 24 6 23.3284 6 22.5V13.5Z" fill="#8D5FEF"/>
<path d="M1 13.5C1 12.6716 1.67157 12 2.5 12H17.5C18.3284 12 19 12.6716 19 13.5V16C19 18.2091 17.2091 20 15 20H5C2.79086 20 1 18.2091 1 16V13.5Z" fill="url(#paint0_radial_178_590)"/>
<path d="M4 20H6V22.5C6 23.3284 6.67157 24 7.5 24H12.5C13.3284 24 14 23.3284 14 22.5V20H16C18.2091 20 20 18.2091 20 16V13.5C20 12.6716 19.3284 12 18.5 12H12.5H7.5H1.5C0.671573 12 0 12.6716 0 13.5V16C0 18.2091 1.79086 20 4 20Z" fill="url(#paint1_radial_178_590)"/>
<path d="M16 6C16 2.68629 13.3137 0 10 0C6.68629 0 4 2.68629 4 6V12C4 15.3137 6.68629 18 10 18C13.3137 18 16 15.3137 16 12V6Z" fill="url(#paint2_radial_178_590)"/>
<path d="M16 6C16 2.68629 13.3137 0 10 0C6.68629 0 4 2.68629 4 6V12C4 15.3137 6.68629 18 10 18C13.3137 18 16 15.3137 16 12V6Z" fill="url(#paint3_radial_178_590)"/>
</g>
<defs>
<radialGradient id="paint0_radial_178_590" cx="0" cy="0" r="1" gradientUnits="userSpaceOnUse" gradientTransform="translate(10 12) rotate(90) scale(10.5 9.6249)">
<stop stop-color="#C34CFF" offset=""/>
<stop offset="0.778846" stop-color="#8D5FEF"/>
<stop offset="1" stop-color="#9564DA"/>
</radialGradient>
<radialGradient id="paint1_radial_178_590" cx="0" cy="0" r="1" gradientUnits="userSpaceOnUse" gradientTransform="translate(10 12) rotate(90) scale(12 11.3671)">
<stop offset="0.504808" stop-color="#7A26E2"/>
<stop offset="1" stop-color="#B070FF"/>
</radialGradient>
<radialGradient id="paint2_radial_178_590" cx="0" cy="0" r="1" gradientUnits="userSpaceOnUse" gradientTransform="translate(10 48) rotate(-90) scale(48)">
<stop offset="0.942308" stop-color="#CDB5FF"/>
<stop offset="1" stop-color="#EED5FF"/>
</radialGradient>
<radialGradient id="paint3_radial_178_590" cx="0" cy="0" r="1" gradientUnits="userSpaceOnUse" gradientTransform="translate(10 48) rotate(-90) scale(48)">
<stop offset="0.626835" stop-color="#FF3B1B"/>
<stop offset="0.729212" stop-color="#F44276"/>
<stop offset="0.787792" stop-color="#DD5AB3" stop-opacity="0.35"/>
<stop offset="0.834827" stop-color="#C7ACFF" stop-opacity="0"/>
</radialGradient>
<clipPath id="clip0_178_590">
<rect width="20" height="24" fill="white"/>
</clipPath>
</defs>
</svg>
